{"title":"Relax Hes My Stepdad 5 XXX DVDRiP x264-DivXfacTory","uid":8943933,"size":1381103097,"categoryP":"porn","categoryS":"movies","magnet":"?xt=urn:btih:bc36f83de7d41ebd432c1ddd9e2e1ab485e696e6&amp;dn=Relax+Hes+My+Stepdad+5+XXX+DVDRiP+x264-DivXfacTory&amp;tr=udp%3A%2F%2Ftracker.openbittorrent.com%3A80&amp;tr=udp%3A%2F%2Fopen.demonii.com%3A1337&amp;tr=udp%3A%2F%2Ftracker.coppersurfer.tk%3A6969&amp;tr=udp%3A%2F%2Fexodus.desync.com%3A6969","seeders":0,"leechers":0,"uploader":null,"files":1,"time":1379727835,"description":"Emily Kae, Evan Stone, Jack Vegas, Claudio, Stacie Jaxxx, Selma Sins, Tristan Berrimore, Mario Banderas\n\nStarring Emily Kae!\n\nI Know Mommy Doesn't Do This, But I Will Do Anything!\n\nHere, Relax, Just Let Me Help You Out. Can I Suck Your Cock? Stepdaddy, Stepdaddy, Yes Yes Yes!\n\nFormat : MPEG-4\nFormat profile : Base Media\nCodec ID : isom\nFile size : 1.29 GiB\nDuration : 1h 46mn\nOverall bit rate mode : Variable\nOverall bit rate : 1 737 Kbps\nEncoded date : UTC 2013-09-17 19:49:25\nTagged date : UTC 2013-09-17 19:49:25\n\nVideo\nID : 1\nFormat : AVC\nFormat/Info : Advanced Video Codec\nFormat profile : &lt;a class=&quot;__cf_email__&quot; href=&quot;/cdn-cgi/l/email-protection&quot; data-cfemail=&quot;d39bbab4bb939fe0fde2&quot;&gt;[email&amp;#160;protected]&lt;/a&gt;&lt;script cf-hash='f9e31' type=&quot;text/javascript&quot;&gt;\n/* &lt;![CDATA[ */!function(){try{var t=&quot;currentScript&quot;in document?document.currentScript:function(){for(var t=document.getElementsByTagName(&quot;script&quot;),e=t.length;e--;)if(t[e].getAttribute(&quot;cf-hash&quot;))return t[e]}();if(t&amp;&amp;t.previousSibling){var e,r,n,i,c=t.previousSibling,a=c.getAttribute(&quot;data-cfemail&quot;);if(a){for(e=&quot;&quot;,r=parseInt(a.substr(0,2),16),n=2;a.length-n;n+=2)i=parseInt(a.substr(n,2),16)^r,e+=String.fromCharCode(i);e=document.createTextNode(e),c.parentNode.replaceChild(e,c)}}}catch(u){}}();/* ]]&gt; */&lt;/script&gt;\nFormat settings, CABAC : Yes\nFormat settings, ReFrames : 5 frames\nCodec ID : avc1\nCodec ID/Info : Advanced Video Coding\nDuration : 1h 46mn\nBit rate : 1 611 Kbps\nMaximum bit rate : 4 453 Kbps\nWidth : 720 pixels\nHeight : 404 pixels\nDisplay aspect ratio : 16:9\nFrame rate mode : Constant\nFrame rate : 29.970 fps\nColor space : YUV\nChroma subsampling : 4:2:0\nBit depth : 8 bits\nScan type : Progressive\nBits/(Pixel*Frame) : 0.185\nStream size : 1.19 GiB (93%)\nWriting library : x264 core 138 r2358 9e941d1\n\nEncoded date : UTC 2013-09-17 19:49:25\nTagged date : UTC 2013-09-17 19:54:18\n\nAudio\nID : 2\nFormat : AAC\nFormat/Info : Advanced Audio Codec\nFormat profile : LC\nCodec ID : 40\nDuration : 1h 46mn\nBit rate mode : Variable\nBit rate : 121 Kbps\nMaximum bit rate : 190 Kbps\nChannel(s) : 2 channels\nChannel positions : Front: L R\nSampling rate : 48.0 KHz\nCompression mode : Lossy\nStream size : 92.0 MiB (7%)\nEncoded date : UTC 2013-09-17 18:47:55\nTagged date : UTC 2013-09-17 19:54:18","torrent":{"xt":"urn:btih:bc36f83de7d41ebd432c1ddd9e2e1ab485e696e6","amp;dn":"Relax+Hes+My+Stepdad+5+XXX+DVDRiP+x264-DivXfacTory","amp;tr":["udp%3A%2F%2Ftracker.openbittorrent.com%3A80","udp%3A%2F%2Fopen.demonii.com%3A1337","udp%3A%2F%2Ftracker.coppersurfer.tk%3A6969","udp%3A%2F%2Fexodus.desync.com%3A6969"],"infoHash":"bc36f83de7d41ebd432c1ddd9e2e1ab485e696e6","infoHashBuffer":{"type":"Buffer","data":[188,54,248,61,231,212,30,189,67,44,29,221,158,46,26,180,133,230,150,230]},"announce":[],"urlList":[]}}